<mxfile host="Electron" agent="Mozilla/5.0 (Windows NT 10.0; Win64; x64) AppleWebKit/537.36 (KHTML, like Gecko) draw.io/25.0.2 Chrome/128.0.6613.186 Electron/32.2.5 Safari/537.36" version="25.0.2">
  <diagram name="Страница — 1" id="BgpZIKdiId6qVNsWrgz6">
    <mxGraphModel dx="51" dy="1178" grid="1" gridSize="10" guides="1" tooltips="1" connect="1" arrows="1" fold="1" page="1" pageScale="1" pageWidth="827" pageHeight="1169" math="0" shadow="0">
      <root>
        <mxCell id="0" />
        <mxCell id="1" parent="0" />
        <mxCell id="seMn2YrlTDmNxpCBPGkj-1" style="edgeStyle=orthogonalEdgeStyle;rounded=0;orthogonalLoop=1;jettySize=auto;html=1;fontFamily=GOST B regular;fontStyle=2;fontSize=12;strokeWidth=1;entryX=0.531;entryY=0.052;entryDx=0;entryDy=0;entryPerimeter=0;" edge="1" parent="1" source="seMn2YrlTDmNxpCBPGkj-37" target="seMn2YrlTDmNxpCBPGkj-20">
          <mxGeometry relative="1" as="geometry">
            <Array as="points">
              <mxPoint x="2420" y="280" />
              <mxPoint x="2420" y="585" />
              <mxPoint x="1900" y="585" />
              <mxPoint x="1900" y="630" />
              <mxPoint x="1907" y="630" />
            </Array>
          </mxGeometry>
        </mxCell>
        <mxCell id="seMn2YrlTDmNxpCBPGkj-2" style="edgeStyle=orthogonalEdgeStyle;rounded=0;orthogonalLoop=1;jettySize=auto;html=1;fontFamily=GOST B regular;fontStyle=2;fontSize=12;strokeWidth=1;" edge="1" parent="1" source="seMn2YrlTDmNxpCBPGkj-3" target="seMn2YrlTDmNxpCBPGkj-8">
          <mxGeometry relative="1" as="geometry" />
        </mxCell>
        <mxCell id="seMn2YrlTDmNxpCBPGkj-3" value="&lt;font&gt;&lt;span&gt;Начало&lt;/span&gt;&lt;/font&gt;" style="strokeWidth=1;html=1;shape=mxgraph.flowchart.terminator;whiteSpace=wrap;fontFamily=GOST B regular;fontStyle=2;fontSize=12;" vertex="1" parent="1">
          <mxGeometry x="1840" y="50" width="120" height="60" as="geometry" />
        </mxCell>
        <mxCell id="seMn2YrlTDmNxpCBPGkj-4" value="" style="group;strokeWidth=1;fontFamily=GOST B regular;fontStyle=2;fontSize=12;" vertex="1" connectable="0" parent="1">
          <mxGeometry x="1960" y="40" width="140" height="75" as="geometry" />
        </mxCell>
        <mxCell id="seMn2YrlTDmNxpCBPGkj-5" value="" style="strokeWidth=1;html=1;shape=mxgraph.flowchart.annotation_2;align=left;labelPosition=right;pointerEvents=1;fontFamily=GOST B regular;fontStyle=2;fontSize=12;" vertex="1" parent="seMn2YrlTDmNxpCBPGkj-4">
          <mxGeometry y="5" width="70" height="70" as="geometry" />
        </mxCell>
        <mxCell id="seMn2YrlTDmNxpCBPGkj-6" value="&lt;div&gt;&lt;div&gt;&lt;span style=&quot;background-color: initial; text-wrap: nowrap;&quot;&gt;&lt;font face=&quot;GOST B regular&quot;&gt;&lt;span&gt;validation ф&lt;/span&gt;&lt;/font&gt;&lt;/span&gt;&lt;span style=&quot;text-wrap: nowrap; font-family: &amp;quot;GOST B regular&amp;quot;; background-color: initial;&quot;&gt;ункция&lt;/span&gt;&lt;/div&gt;&lt;div style=&quot;text-wrap: nowrap;&quot;&gt;&lt;font face=&quot;GOST B regular&quot;&gt;&lt;span&gt;проверки корректности&lt;/span&gt;&lt;/font&gt;&lt;/div&gt;&lt;div style=&quot;text-wrap: nowrap;&quot;&gt;&lt;font face=&quot;GOST B regular&quot;&gt;&lt;span&gt;данных&amp;nbsp; полученных с&lt;/span&gt;&lt;/font&gt;&lt;/div&gt;&lt;div style=&quot;text-wrap: nowrap;&quot;&gt;&lt;font face=&quot;GOST B regular&quot;&gt;&lt;span&gt;датчиков&lt;/span&gt;&lt;/font&gt;&lt;/div&gt;&lt;/div&gt;" style="text;html=1;align=left;verticalAlign=middle;whiteSpace=wrap;rounded=0;strokeWidth=1;fontFamily=GOST B regular;fontStyle=2;fontSize=12;" vertex="1" parent="seMn2YrlTDmNxpCBPGkj-4">
          <mxGeometry x="40" y="2.5" width="120" height="70" as="geometry" />
        </mxCell>
        <mxCell id="seMn2YrlTDmNxpCBPGkj-7" value="" style="edgeStyle=orthogonalEdgeStyle;rounded=0;orthogonalLoop=1;jettySize=auto;html=1;fontFamily=GOST B regular;fontStyle=2;fontSize=12;strokeWidth=1;" edge="1" parent="1" source="seMn2YrlTDmNxpCBPGkj-8" target="seMn2YrlTDmNxpCBPGkj-11">
          <mxGeometry relative="1" as="geometry" />
        </mxCell>
        <mxCell id="seMn2YrlTDmNxpCBPGkj-8" value="Задание начальных значений флагам" style="rounded=0;whiteSpace=wrap;html=1;absoluteArcSize=1;arcSize=14;strokeWidth=1;fontFamily=GOST B regular;fontStyle=2;fontSize=12;" vertex="1" parent="1">
          <mxGeometry x="1830" y="145" width="140" height="50" as="geometry" />
        </mxCell>
        <mxCell id="seMn2YrlTDmNxpCBPGkj-9" style="edgeStyle=orthogonalEdgeStyle;rounded=0;orthogonalLoop=1;jettySize=auto;html=1;fontFamily=GOST B regular;fontStyle=2;fontSize=12;strokeWidth=1;" edge="1" parent="1" source="seMn2YrlTDmNxpCBPGkj-11" target="seMn2YrlTDmNxpCBPGkj-36">
          <mxGeometry relative="1" as="geometry">
            <Array as="points">
              <mxPoint x="2055" y="280" />
              <mxPoint x="2055" y="280" />
            </Array>
          </mxGeometry>
        </mxCell>
        <mxCell id="seMn2YrlTDmNxpCBPGkj-10" value="" style="edgeStyle=orthogonalEdgeStyle;rounded=0;orthogonalLoop=1;jettySize=auto;html=1;fontFamily=GOST B regular;fontStyle=2;fontSize=12;strokeWidth=1;" edge="1" parent="1" source="seMn2YrlTDmNxpCBPGkj-11" target="seMn2YrlTDmNxpCBPGkj-14">
          <mxGeometry relative="1" as="geometry" />
        </mxCell>
        <mxCell id="seMn2YrlTDmNxpCBPGkj-11" value="Модуль разницы&lt;div&gt;показаний датчиков выше&lt;/div&gt;&lt;div&gt;заданного порога?&lt;/div&gt;" style="strokeWidth=1;html=1;shape=mxgraph.flowchart.decision;whiteSpace=wrap;fontFamily=GOST B regular;fontStyle=2;spacing=2;fontSize=12;" vertex="1" parent="1">
          <mxGeometry x="1800" y="230" width="200" height="100" as="geometry" />
        </mxCell>
        <mxCell id="seMn2YrlTDmNxpCBPGkj-12" style="edgeStyle=orthogonalEdgeStyle;rounded=0;orthogonalLoop=1;jettySize=auto;html=1;fontFamily=GOST B regular;fontStyle=2;fontSize=12;strokeWidth=1;" edge="1" parent="1" source="seMn2YrlTDmNxpCBPGkj-14" target="seMn2YrlTDmNxpCBPGkj-32">
          <mxGeometry relative="1" as="geometry" />
        </mxCell>
        <mxCell id="seMn2YrlTDmNxpCBPGkj-13" value="" style="edgeStyle=orthogonalEdgeStyle;rounded=0;orthogonalLoop=1;jettySize=auto;html=1;fontFamily=GOST B regular;fontStyle=2;fontSize=12;strokeWidth=1;" edge="1" parent="1" source="seMn2YrlTDmNxpCBPGkj-14" target="seMn2YrlTDmNxpCBPGkj-17">
          <mxGeometry relative="1" as="geometry" />
        </mxCell>
        <mxCell id="seMn2YrlTDmNxpCBPGkj-14" value="Показания&amp;nbsp;&lt;span style=&quot;background-color: initial;&quot;&gt;первого&lt;/span&gt;&lt;div&gt;&lt;span style=&quot;background-color: initial;&quot;&gt;датчика&amp;nbsp;&lt;/span&gt;&lt;span style=&quot;background-color: initial;&quot;&gt;выше&amp;nbsp;&lt;/span&gt;&lt;span style=&quot;background-color: initial;&quot;&gt;установленного&lt;/span&gt;&lt;/div&gt;&lt;div&gt;&lt;span style=&quot;background-color: initial;&quot;&gt;порога?&lt;/span&gt;&lt;/div&gt;" style="strokeWidth=1;html=1;shape=mxgraph.flowchart.decision;whiteSpace=wrap;fontFamily=GOST B regular;fontStyle=2;spacing=2;fontSize=12;" vertex="1" parent="1">
          <mxGeometry x="1795" y="355" width="210" height="90" as="geometry" />
        </mxCell>
        <mxCell id="seMn2YrlTDmNxpCBPGkj-15" value="" style="edgeStyle=orthogonalEdgeStyle;rounded=0;orthogonalLoop=1;jettySize=auto;html=1;fontFamily=GOST B regular;fontStyle=2;fontSize=12;strokeWidth=1;" edge="1" parent="1" source="seMn2YrlTDmNxpCBPGkj-17" target="seMn2YrlTDmNxpCBPGkj-20">
          <mxGeometry relative="1" as="geometry" />
        </mxCell>
        <mxCell id="seMn2YrlTDmNxpCBPGkj-16" value="" style="edgeStyle=orthogonalEdgeStyle;rounded=0;orthogonalLoop=1;jettySize=auto;html=1;fontFamily=GOST B regular;fontStyle=2;fontSize=12;strokeWidth=1;" edge="1" parent="1" source="seMn2YrlTDmNxpCBPGkj-17" target="seMn2YrlTDmNxpCBPGkj-28">
          <mxGeometry relative="1" as="geometry" />
        </mxCell>
        <mxCell id="seMn2YrlTDmNxpCBPGkj-17" value="Показания&amp;nbsp;&lt;span style=&quot;background-color: initial;&quot;&gt;второго&lt;/span&gt;&lt;div&gt;&lt;span style=&quot;background-color: initial;&quot;&gt;установленного&lt;/span&gt;&lt;/div&gt;&lt;div&gt;&lt;span style=&quot;background-color: initial;&quot;&gt;порога?&lt;/span&gt;&lt;/div&gt;" style="strokeWidth=1;html=1;shape=mxgraph.flowchart.decision;whiteSpace=wrap;fontFamily=GOST B regular;fontStyle=2;spacing=2;fontSize=12;" vertex="1" parent="1">
          <mxGeometry x="1790" y="470" width="220" height="80" as="geometry" />
        </mxCell>
        <mxCell id="seMn2YrlTDmNxpCBPGkj-18" value="" style="edgeStyle=orthogonalEdgeStyle;rounded=0;orthogonalLoop=1;jettySize=auto;html=1;fontFamily=GOST B regular;fontStyle=2;fontSize=12;strokeWidth=1;" edge="1" parent="1" source="seMn2YrlTDmNxpCBPGkj-20" target="seMn2YrlTDmNxpCBPGkj-23">
          <mxGeometry relative="1" as="geometry" />
        </mxCell>
        <mxCell id="seMn2YrlTDmNxpCBPGkj-19" style="edgeStyle=orthogonalEdgeStyle;rounded=0;orthogonalLoop=1;jettySize=auto;html=1;strokeWidth=1;" edge="1" parent="1" source="seMn2YrlTDmNxpCBPGkj-20" target="seMn2YrlTDmNxpCBPGkj-26">
          <mxGeometry relative="1" as="geometry" />
        </mxCell>
        <mxCell id="seMn2YrlTDmNxpCBPGkj-20" value="Установлен флаг&lt;div&gt;ошибочных данных?&lt;/div&gt;" style="strokeWidth=1;html=1;shape=mxgraph.flowchart.decision;whiteSpace=wrap;fontFamily=GOST B regular;fontStyle=2;spacing=2;fontSize=12;" vertex="1" parent="1">
          <mxGeometry x="1790" y="615" width="220" height="80" as="geometry" />
        </mxCell>
        <mxCell id="seMn2YrlTDmNxpCBPGkj-21" value="" style="edgeStyle=orthogonalEdgeStyle;rounded=0;orthogonalLoop=1;jettySize=auto;html=1;fontFamily=GOST B regular;fontStyle=2;fontSize=12;strokeWidth=1;" edge="1" parent="1" source="seMn2YrlTDmNxpCBPGkj-23" target="seMn2YrlTDmNxpCBPGkj-25">
          <mxGeometry relative="1" as="geometry" />
        </mxCell>
        <mxCell id="seMn2YrlTDmNxpCBPGkj-22" style="edgeStyle=orthogonalEdgeStyle;rounded=0;orthogonalLoop=1;jettySize=auto;html=1;strokeWidth=1;" edge="1" parent="1" source="seMn2YrlTDmNxpCBPGkj-23" target="seMn2YrlTDmNxpCBPGkj-26">
          <mxGeometry relative="1" as="geometry" />
        </mxCell>
        <mxCell id="seMn2YrlTDmNxpCBPGkj-23" value="Активен ли&lt;div&gt;процесс нагрева?&amp;nbsp;&lt;/div&gt;" style="strokeWidth=1;html=1;shape=mxgraph.flowchart.decision;whiteSpace=wrap;fontFamily=GOST B regular;fontStyle=2;spacing=2;fontSize=12;" vertex="1" parent="1">
          <mxGeometry x="1790" y="735" width="220" height="70" as="geometry" />
        </mxCell>
        <mxCell id="seMn2YrlTDmNxpCBPGkj-24" value="" style="edgeStyle=orthogonalEdgeStyle;rounded=0;orthogonalLoop=1;jettySize=auto;html=1;strokeWidth=1;" edge="1" parent="1" source="seMn2YrlTDmNxpCBPGkj-25" target="seMn2YrlTDmNxpCBPGkj-39">
          <mxGeometry relative="1" as="geometry" />
        </mxCell>
        <mxCell id="seMn2YrlTDmNxpCBPGkj-25" value="Остановить работу нагревательных элементов" style="rounded=0;whiteSpace=wrap;html=1;absoluteArcSize=1;arcSize=14;strokeWidth=1;fontFamily=GOST B regular;fontStyle=2;fontSize=12;" vertex="1" parent="1">
          <mxGeometry x="1830" y="835" width="140" height="50" as="geometry" />
        </mxCell>
        <mxCell id="seMn2YrlTDmNxpCBPGkj-26" value="&lt;font&gt;&lt;span&gt;Начало&lt;/span&gt;&lt;/font&gt;" style="strokeWidth=1;html=1;shape=mxgraph.flowchart.terminator;whiteSpace=wrap;fontFamily=GOST B regular;fontStyle=2;fontSize=12;" vertex="1" parent="1">
          <mxGeometry x="2220" y="830" width="120" height="60" as="geometry" />
        </mxCell>
        <mxCell id="seMn2YrlTDmNxpCBPGkj-27" value="" style="edgeStyle=orthogonalEdgeStyle;rounded=0;orthogonalLoop=1;jettySize=auto;html=1;fontFamily=GOST B regular;fontStyle=2;fontSize=12;strokeWidth=1;" edge="1" parent="1" source="seMn2YrlTDmNxpCBPGkj-28" target="seMn2YrlTDmNxpCBPGkj-30">
          <mxGeometry relative="1" as="geometry" />
        </mxCell>
        <mxCell id="seMn2YrlTDmNxpCBPGkj-28" value="Вывести на дисплей сообщение об ошибке в работе второго датчика" style="rounded=0;whiteSpace=wrap;html=1;absoluteArcSize=1;arcSize=14;strokeWidth=1;fontFamily=GOST B regular;fontStyle=2;fontSize=12;" vertex="1" parent="1">
          <mxGeometry x="2070" y="477.5" width="140" height="65" as="geometry" />
        </mxCell>
        <mxCell id="seMn2YrlTDmNxpCBPGkj-29" style="edgeStyle=orthogonalEdgeStyle;rounded=0;orthogonalLoop=1;jettySize=auto;html=1;fontFamily=GOST B regular;fontStyle=2;fontSize=12;strokeWidth=1;" edge="1" parent="1" source="seMn2YrlTDmNxpCBPGkj-30" target="seMn2YrlTDmNxpCBPGkj-20">
          <mxGeometry relative="1" as="geometry">
            <mxPoint x="1875" y="625" as="targetPoint" />
            <Array as="points">
              <mxPoint x="2420" y="505" />
              <mxPoint x="2420" y="585" />
              <mxPoint x="1900" y="585" />
            </Array>
          </mxGeometry>
        </mxCell>
        <mxCell id="seMn2YrlTDmNxpCBPGkj-30" value="Проставить флаг ошибочных данных" style="rounded=0;whiteSpace=wrap;html=1;absoluteArcSize=1;arcSize=14;strokeWidth=1;fontFamily=GOST B regular;fontStyle=2;fontSize=12;" vertex="1" parent="1">
          <mxGeometry x="2230" y="485" width="140" height="50" as="geometry" />
        </mxCell>
        <mxCell id="seMn2YrlTDmNxpCBPGkj-31" value="" style="edgeStyle=orthogonalEdgeStyle;rounded=0;orthogonalLoop=1;jettySize=auto;html=1;fontFamily=GOST B regular;fontStyle=2;fontSize=12;strokeWidth=1;" edge="1" parent="1" source="seMn2YrlTDmNxpCBPGkj-32" target="seMn2YrlTDmNxpCBPGkj-34">
          <mxGeometry relative="1" as="geometry" />
        </mxCell>
        <mxCell id="seMn2YrlTDmNxpCBPGkj-32" value="Вывести на дисплей сообщение об ошибке в работе первого датчика" style="rounded=0;whiteSpace=wrap;html=1;absoluteArcSize=1;arcSize=14;strokeWidth=1;fontFamily=GOST B regular;fontStyle=2;fontSize=12;" vertex="1" parent="1">
          <mxGeometry x="2065" y="365" width="140" height="70" as="geometry" />
        </mxCell>
        <mxCell id="seMn2YrlTDmNxpCBPGkj-33" style="edgeStyle=orthogonalEdgeStyle;rounded=0;orthogonalLoop=1;jettySize=auto;html=1;fontFamily=GOST B regular;fontStyle=2;fontSize=12;strokeWidth=1;" edge="1" parent="1" source="seMn2YrlTDmNxpCBPGkj-34" target="seMn2YrlTDmNxpCBPGkj-20">
          <mxGeometry relative="1" as="geometry">
            <Array as="points">
              <mxPoint x="2420" y="395" />
              <mxPoint x="2420" y="585" />
              <mxPoint x="1900" y="585" />
            </Array>
            <mxPoint x="1890" y="620" as="targetPoint" />
          </mxGeometry>
        </mxCell>
        <mxCell id="seMn2YrlTDmNxpCBPGkj-34" value="Проставить флаг ошибочных данных" style="rounded=0;whiteSpace=wrap;html=1;absoluteArcSize=1;arcSize=14;strokeWidth=1;fontFamily=GOST B regular;fontStyle=2;fontSize=12;" vertex="1" parent="1">
          <mxGeometry x="2230" y="375" width="140" height="50" as="geometry" />
        </mxCell>
        <mxCell id="seMn2YrlTDmNxpCBPGkj-35" value="" style="edgeStyle=orthogonalEdgeStyle;rounded=0;orthogonalLoop=1;jettySize=auto;html=1;fontFamily=GOST B regular;fontStyle=2;fontSize=12;strokeWidth=1;" edge="1" parent="1" source="seMn2YrlTDmNxpCBPGkj-36" target="seMn2YrlTDmNxpCBPGkj-37">
          <mxGeometry relative="1" as="geometry" />
        </mxCell>
        <mxCell id="seMn2YrlTDmNxpCBPGkj-36" value="Вывести на дисплей сообщение об ошибке в работе&amp;nbsp; датчиков" style="rounded=0;whiteSpace=wrap;html=1;absoluteArcSize=1;arcSize=14;strokeWidth=1;fontFamily=GOST B regular;fontStyle=2;fontSize=12;" vertex="1" parent="1">
          <mxGeometry x="2065" y="255" width="140" height="50" as="geometry" />
        </mxCell>
        <mxCell id="seMn2YrlTDmNxpCBPGkj-37" value="Проставить флаг ошибочных данных" style="rounded=0;whiteSpace=wrap;html=1;absoluteArcSize=1;arcSize=14;strokeWidth=1;fontFamily=GOST B regular;fontStyle=2;fontSize=12;" vertex="1" parent="1">
          <mxGeometry x="2230" y="255" width="140" height="50" as="geometry" />
        </mxCell>
        <mxCell id="seMn2YrlTDmNxpCBPGkj-38" value="" style="edgeStyle=orthogonalEdgeStyle;rounded=0;orthogonalLoop=1;jettySize=auto;html=1;strokeWidth=1;" edge="1" parent="1" source="seMn2YrlTDmNxpCBPGkj-39" target="seMn2YrlTDmNxpCBPGkj-26">
          <mxGeometry relative="1" as="geometry" />
        </mxCell>
        <mxCell id="seMn2YrlTDmNxpCBPGkj-39" value="Остановить выполнение программы вызовом функции abort()" style="rounded=0;whiteSpace=wrap;html=1;absoluteArcSize=1;arcSize=14;strokeWidth=1;fontFamily=GOST B regular;fontStyle=2;fontSize=12;" vertex="1" parent="1">
          <mxGeometry x="2005" y="835" width="140" height="50" as="geometry" />
        </mxCell>
        <mxCell id="seMn2YrlTDmNxpCBPGkj-40" value="&lt;font face=&quot;GOST B regular&quot;&gt;&lt;i&gt;Нет&lt;/i&gt;&lt;/font&gt;" style="text;html=1;align=center;verticalAlign=middle;resizable=0;points=[];autosize=1;strokeColor=none;fillColor=none;" vertex="1" parent="1">
          <mxGeometry x="1900" y="325" width="45" height="30" as="geometry" />
        </mxCell>
        <mxCell id="seMn2YrlTDmNxpCBPGkj-41" value="&lt;font face=&quot;GOST B regular&quot;&gt;&lt;i&gt;Да&lt;/i&gt;&lt;/font&gt;" style="text;html=1;align=center;verticalAlign=middle;resizable=0;points=[];autosize=1;strokeColor=none;fillColor=none;" vertex="1" parent="1">
          <mxGeometry x="2010" y="250" width="35" height="30" as="geometry" />
        </mxCell>
        <mxCell id="seMn2YrlTDmNxpCBPGkj-42" value="&lt;font face=&quot;GOST B regular&quot;&gt;&lt;i&gt;Нет&lt;/i&gt;&lt;/font&gt;" style="text;html=1;align=center;verticalAlign=middle;resizable=0;points=[];autosize=1;strokeColor=none;fillColor=none;" vertex="1" parent="1">
          <mxGeometry x="1900" y="440" width="45" height="30" as="geometry" />
        </mxCell>
        <mxCell id="seMn2YrlTDmNxpCBPGkj-43" value="&lt;font face=&quot;GOST B regular&quot;&gt;&lt;i&gt;Нет&lt;/i&gt;&lt;/font&gt;" style="text;html=1;align=center;verticalAlign=middle;resizable=0;points=[];autosize=1;strokeColor=none;fillColor=none;" vertex="1" parent="1">
          <mxGeometry x="1900" y="550" width="45" height="30" as="geometry" />
        </mxCell>
        <mxCell id="seMn2YrlTDmNxpCBPGkj-44" value="&lt;font face=&quot;GOST B regular&quot;&gt;&lt;i&gt;Нет&lt;/i&gt;&lt;/font&gt;" style="text;html=1;align=center;verticalAlign=middle;resizable=0;points=[];autosize=1;strokeColor=none;fillColor=none;" vertex="1" parent="1">
          <mxGeometry x="2000" y="625" width="45" height="30" as="geometry" />
        </mxCell>
        <mxCell id="seMn2YrlTDmNxpCBPGkj-45" value="&lt;font face=&quot;GOST B regular&quot;&gt;&lt;i&gt;Нет&lt;/i&gt;&lt;/font&gt;" style="text;html=1;align=center;verticalAlign=middle;resizable=0;points=[];autosize=1;strokeColor=none;fillColor=none;" vertex="1" parent="1">
          <mxGeometry x="2010" y="740" width="45" height="30" as="geometry" />
        </mxCell>
        <mxCell id="seMn2YrlTDmNxpCBPGkj-46" value="&lt;font face=&quot;GOST B regular&quot;&gt;&lt;i&gt;Да&lt;/i&gt;&lt;/font&gt;" style="text;html=1;align=center;verticalAlign=middle;resizable=0;points=[];autosize=1;strokeColor=none;fillColor=none;" vertex="1" parent="1">
          <mxGeometry x="2012.5" y="370" width="35" height="30" as="geometry" />
        </mxCell>
        <mxCell id="seMn2YrlTDmNxpCBPGkj-47" value="&lt;font face=&quot;GOST B regular&quot;&gt;&lt;i&gt;Да&lt;/i&gt;&lt;/font&gt;" style="text;html=1;align=center;verticalAlign=middle;resizable=0;points=[];autosize=1;strokeColor=none;fillColor=none;" vertex="1" parent="1">
          <mxGeometry x="2012.5" y="477.5" width="35" height="30" as="geometry" />
        </mxCell>
        <mxCell id="seMn2YrlTDmNxpCBPGkj-48" value="&lt;font face=&quot;GOST B regular&quot;&gt;&lt;i&gt;Да&lt;/i&gt;&lt;/font&gt;" style="text;html=1;align=center;verticalAlign=middle;resizable=0;points=[];autosize=1;strokeColor=none;fillColor=none;" vertex="1" parent="1">
          <mxGeometry x="1905" y="700" width="35" height="30" as="geometry" />
        </mxCell>
        <mxCell id="seMn2YrlTDmNxpCBPGkj-49" value="&lt;font face=&quot;GOST B regular&quot;&gt;&lt;i&gt;Да&lt;/i&gt;&lt;/font&gt;" style="text;html=1;align=center;verticalAlign=middle;resizable=0;points=[];autosize=1;strokeColor=none;fillColor=none;" vertex="1" parent="1">
          <mxGeometry x="1900" y="800" width="35" height="30" as="geometry" />
        </mxCell>
      </root>
    </mxGraphModel>
  </diagram>
</mxfile>
